<svg width="14" height="14" viewBox="0 0 14 14" fill="none" xmlns="http://www.w3.org/2000/svg">
<path d="M12.25 10.7188H12.0312V2.1875C12.0312 2.01345 11.9621 1.84653 11.839 1.72346C11.716 1.60039 11.549 1.53125 11.375 1.53125H8.3125C8.13845 1.53125 7.97153 1.60039 7.84846 1.72346C7.72539 1.84653 7.65625 2.01345 7.65625 2.1875V4.15625H5.25C5.07595 4.15625 4.90903 4.22539 4.78596 4.34846C4.66289 4.47153 4.59375 4.63845 4.59375 4.8125V6.78125H2.625C2.45095 6.78125 2.28403 6.85039 2.16096 6.97346C2.03789 7.09653 1.96875 7.26345 1.96875 7.4375V10.7188H1.75C1.57595 10.7188 1.40903 10.7879 1.28596 10.911C1.16289 11.034 1.09375 11.201 1.09375 11.375C1.09375 11.549 1.16289 11.716 1.28596 11.839C1.40903 11.9621 1.57595 12.0312 1.75 12.0312H12.25C12.424 12.0312 12.591 11.9621 12.714 11.839C12.8371 11.716 12.9062 11.549 12.9062 11.375C12.9062 11.201 12.8371 11.034 12.714 10.911C12.591 10.7879 12.424 10.7188 12.25 10.7188ZM8.96875 2.84375H10.7188V10.7188H8.96875V2.84375ZM5.90625 5.46875H7.65625V10.7188H5.90625V5.46875ZM3.28125 8.09375H4.59375V10.7188H3.28125V8.09375Z" fill="white"/>
</svg>
