<svg width="14" height="14" viewBox="0 0 14 14" fill="none" xmlns="http://www.w3.org/2000/svg">
<path d="M9.84376 11.8125C9.84376 11.9865 9.77461 12.1535 9.65154 12.2765C9.52847 12.3996 9.36155 12.4687 9.18751 12.4687H1.31251C1.13846 12.4687 0.971538 12.3996 0.848467 12.2765C0.725396 12.1535 0.656256 11.9865 0.656256 11.8125C0.656256 11.6384 0.725396 11.4715 0.848467 11.3485C0.971538 11.2254 1.13846 11.1562 1.31251 11.1562H9.18751C9.36155 11.1562 9.52847 11.2254 9.65154 11.3485C9.77461 11.4715 9.84376 11.6384 9.84376 11.8125ZM13.7698 4.9153C13.7527 5.00679 13.7164 5.0936 13.6632 5.16997C13.61 5.24634 13.5412 5.31053 13.4613 5.35827L5.4004 10.1719L5.39329 10.1757C4.94647 10.438 4.42655 10.5482 3.91174 10.4896C3.39693 10.431 2.91505 10.2069 2.5386 9.85085L2.52821 9.84101L0.559459 7.91327C0.429788 7.78971 0.332445 7.6362 0.275982 7.46622C0.219519 7.29625 0.205665 7.115 0.235636 6.93841C0.265607 6.76183 0.338487 6.5953 0.447871 6.45347C0.557256 6.31164 0.699798 6.19884 0.862974 6.12499L1.02376 6.04624C1.17924 5.97012 1.35851 5.95852 1.52251 6.01398L2.97172 6.50288L3.74555 6.03476L2.75735 5.0739C2.62367 4.95007 2.52305 4.79481 2.46462 4.62222C2.40619 4.44962 2.3918 4.26517 2.42277 4.0856C2.45374 3.90604 2.52908 3.73706 2.64195 3.59401C2.75482 3.45095 2.90163 3.33837 3.06907 3.26648L3.09532 3.25554L3.48633 3.10788C3.63446 3.05254 3.79758 3.05254 3.94571 3.10788L6.79712 4.15624L9.52766 2.52655C10.0219 2.23177 10.6058 2.12481 11.1725 2.22523C11.7392 2.32565 12.2508 2.62675 12.6137 3.07343C12.6171 3.0772 12.6202 3.08122 12.623 3.08546L13.6423 4.3914C13.6997 4.46462 13.7407 4.54923 13.7627 4.63958C13.7846 4.72994 13.7871 4.82394 13.7698 4.9153ZM12.1505 4.61233L11.5938 3.89866C11.4287 3.69754 11.1971 3.56223 10.9408 3.51728C10.6846 3.47233 10.4207 3.52071 10.197 3.65366L7.2018 5.44194C7.11794 5.49251 7.02383 5.52366 6.92636 5.53313C6.82889 5.54259 6.73054 5.53012 6.63852 5.49663L4.1229 4.57023L5.27133 5.68585C5.34325 5.75576 5.39818 5.84122 5.43192 5.93567C5.46565 6.03012 5.47729 6.13105 5.46594 6.2307C5.45458 6.33035 5.42054 6.42607 5.36642 6.51051C5.31231 6.59495 5.23955 6.66586 5.15376 6.7178L3.39063 7.78148C3.30926 7.83048 3.21822 7.86124 3.1238 7.87163C3.02938 7.88202 2.93383 7.87178 2.84376 7.84163L2.11368 7.59554L3.44313 8.8971C3.61406 9.05684 3.83195 9.15721 4.06444 9.18332C4.29694 9.20943 4.53165 9.15988 4.73376 9.04202L12.1505 4.61233Z" fill="#101318"/>
</svg>
