<svg width="14" height="14" viewBox="0 0 14 14" fill="none" xmlns="http://www.w3.org/2000/svg">
<path d="M12.25 2.40625H1.75C1.57595 2.40625 1.40903 2.47539 1.28596 2.59846C1.16289 2.72153 1.09375 2.88845 1.09375 3.0625V10.5C1.09375 10.7901 1.20898 11.0683 1.4141 11.2734C1.61922 11.4785 1.89742 11.5938 2.1875 11.5938H11.8125C12.1026 11.5938 12.3808 11.4785 12.5859 11.2734C12.791 11.0683 12.9062 10.7901 12.9062 10.5V3.0625C12.9062 2.88845 12.8371 2.72153 12.714 2.59846C12.591 2.47539 12.424 2.40625 12.25 2.40625ZM10.5629 3.71875L7 6.98469L3.43711 3.71875H10.5629ZM2.40625 10.2812V4.55437L6.55648 8.35898C6.67752 8.46997 6.83578 8.53154 7 8.53154C7.16422 8.53154 7.32248 8.46997 7.44352 8.35898L11.5938 4.55437V10.2812H2.40625Z" fill="white"/>
</svg>
