<svg width="14" height="14" viewBox="0 0 14 14" fill="none" xmlns="http://www.w3.org/2000/svg">
<path d="M11.4499 3.29602C10.2856 2.71359 8.75 2.40625 7 2.40625C5.25 2.40625 3.71438 2.71359 2.55008 3.29602C1.34641 3.89758 0.65625 4.7693 0.65625 5.6875V8.3125C0.65625 9.2307 1.34641 10.1024 2.55008 10.704C3.71438 11.2864 5.25273 11.5938 7 11.5938C8.74727 11.5938 10.2856 11.2864 11.4499 10.704C12.653 10.1024 13.3438 9.2307 13.3438 8.3125V5.6875C13.3438 4.7693 12.6536 3.89758 11.4499 3.29602ZM3.13742 4.46961C4.10594 3.98563 5.4775 3.71875 7 3.71875C8.5225 3.71875 9.89406 3.98563 10.8626 4.46961C11.5834 4.83 12.0312 5.29703 12.0312 5.6875C12.0312 6.07797 11.5834 6.545 10.8626 6.90539C9.89406 7.38937 8.5225 7.65625 7 7.65625C5.4775 7.65625 4.10594 7.38937 3.13742 6.90539C2.41664 6.545 1.96875 6.07797 1.96875 5.6875C1.96875 5.29703 2.41664 4.83 3.13742 4.46961ZM9.84375 9.91922C9.12983 10.1158 8.39604 10.2314 7.65625 10.2637V8.95125C8.39339 8.92117 9.12593 8.82026 9.84375 8.64992V9.91922ZM4.15625 8.65266C4.87407 8.823 5.60661 8.92391 6.34375 8.95398V10.2665C5.60396 10.2341 4.87017 10.1185 4.15625 9.92195V8.65266ZM1.96875 8.3125V7.74047C2.15497 7.86581 2.34916 7.97889 2.55008 8.07898C2.64523 8.12656 2.74367 8.17195 2.84375 8.2157V9.36797C2.29688 9.03656 1.96875 8.64664 1.96875 8.3125ZM11.1562 9.36797V8.2157C11.2563 8.17195 11.3548 8.12656 11.4499 8.07898C11.6508 7.97889 11.845 7.86581 12.0312 7.74047V8.3125C12.0312 8.64664 11.7031 9.03656 11.1562 9.36797Z" fill="#101318"/>
</svg>
