<svg width="14" height="14" viewBox="0 0 14 14" fill="none" xmlns="http://www.w3.org/2000/svg">
<path d="M9.93453 7.30957L5.55953 11.6846C5.49834 11.7458 5.42036 11.7875 5.33545 11.8045C5.25053 11.8214 5.16251 11.8127 5.08253 11.7796C5.00254 11.7464 4.93419 11.6903 4.88612 11.6183C4.83805 11.5463 4.81243 11.4616 4.8125 11.375V2.62504C4.81243 2.53846 4.83805 2.45381 4.88612 2.3818C4.93419 2.30979 5.00254 2.25366 5.08253 2.22052C5.16251 2.18738 5.25053 2.17871 5.33545 2.19562C5.42036 2.21253 5.49834 2.25425 5.55953 2.31551L9.93453 6.69051C9.97521 6.73114 10.0075 6.77939 10.0295 6.8325C10.0515 6.88561 10.0628 6.94255 10.0628 7.00004C10.0628 7.05753 10.0515 7.11446 10.0295 7.16758C10.0075 7.22069 9.97521 7.26894 9.93453 7.30957Z" fill="white"/>
</svg>
