<svg width="14" height="14" viewBox="0 0 14 14" fill="none" xmlns="http://www.w3.org/2000/svg">
<path d="M11.8125 1.96875H2.1875C1.89742 1.96875 1.61922 2.08398 1.4141 2.2891C1.20898 2.49422 1.09375 2.77242 1.09375 3.0625V10.9375C1.09375 11.2276 1.20898 11.5058 1.4141 11.7109C1.61922 11.916 1.89742 12.0312 2.1875 12.0312H11.8125C12.1026 12.0312 12.3808 11.916 12.5859 11.7109C12.791 11.5058 12.9062 11.2276 12.9062 10.9375V3.0625C12.9062 2.77242 12.791 2.49422 12.5859 2.2891C12.3808 2.08398 12.1026 1.96875 11.8125 1.96875ZM11.5938 10.7188H2.40625V3.28125H11.5938V10.7188ZM4.15625 4.8125C4.15625 4.63845 4.22539 4.47153 4.34846 4.34846C4.47153 4.22539 4.63845 4.15625 4.8125 4.15625C4.98655 4.15625 5.15347 4.22539 5.27654 4.34846C5.39961 4.47153 5.46875 4.63845 5.46875 4.8125C5.46875 5.21861 5.63008 5.60809 5.91724 5.89526C6.20441 6.18242 6.59389 6.34375 7 6.34375C7.40611 6.34375 7.79559 6.18242 8.08276 5.89526C8.36992 5.60809 8.53125 5.21861 8.53125 4.8125C8.53125 4.63845 8.60039 4.47153 8.72346 4.34846C8.84653 4.22539 9.01345 4.15625 9.1875 4.15625C9.36155 4.15625 9.52847 4.22539 9.65154 4.34846C9.77461 4.47153 9.84375 4.63845 9.84375 4.8125C9.84375 5.56671 9.54414 6.29003 9.01083 6.82334C8.47753 7.35664 7.75421 7.65625 7 7.65625C6.24579 7.65625 5.52247 7.35664 4.98917 6.82334C4.45586 6.29003 4.15625 5.56671 4.15625 4.8125Z" fill="white"/>
</svg>
