<svg width="14" height="14" viewBox="0 0 14 14" fill="none" xmlns="http://www.w3.org/2000/svg">
<path d="M12.25 2.40625H1.75C1.45992 2.40625 1.18172 2.52148 0.976602 2.7266C0.771484 2.93172 0.65625 3.20992 0.65625 3.5V10.5C0.65625 10.7901 0.771484 11.0683 0.976602 11.2734C1.18172 11.4785 1.45992 11.5938 1.75 11.5938H12.25C12.5401 11.5938 12.8183 11.4785 13.0234 11.2734C13.2285 11.0683 13.3438 10.7901 13.3438 10.5V3.5C13.3438 3.20992 13.2285 2.93172 13.0234 2.7266C12.8183 2.52148 12.5401 2.40625 12.25 2.40625ZM12.0312 3.71875V4.8125H1.96875V3.71875H12.0312ZM1.96875 10.2812V6.125H12.0312V10.2812H1.96875ZM11.375 8.96875C11.375 9.1428 11.3059 9.30972 11.1828 9.43279C11.0597 9.55586 10.8928 9.625 10.7188 9.625H8.96875C8.7947 9.625 8.62778 9.55586 8.50471 9.43279C8.38164 9.30972 8.3125 9.1428 8.3125 8.96875C8.3125 8.7947 8.38164 8.62778 8.50471 8.50471C8.62778 8.38164 8.7947 8.3125 8.96875 8.3125H10.7188C10.8928 8.3125 11.0597 8.38164 11.1828 8.50471C11.3059 8.62778 11.375 8.7947 11.375 8.96875ZM7.65625 8.96875C7.65625 9.1428 7.58711 9.30972 7.46404 9.43279C7.34097 9.55586 7.17405 9.625 7 9.625H6.34375C6.1697 9.625 6.00278 9.55586 5.87971 9.43279C5.75664 9.30972 5.6875 9.1428 5.6875 8.96875C5.6875 8.7947 5.75664 8.62778 5.87971 8.50471C6.00278 8.38164 6.1697 8.3125 6.34375 8.3125H7C7.17405 8.3125 7.34097 8.38164 7.46404 8.50471C7.58711 8.62778 7.65625 8.7947 7.65625 8.96875Z" fill="white"/>
</svg>
