<svg width="14" height="14" viewBox="0 0 14 14" fill="none" xmlns="http://www.w3.org/2000/svg">
<path d="M11.8125 2.40625H2.1875C2.01345 2.40625 1.84653 2.47539 1.72346 2.59846C1.60039 2.72153 1.53125 2.88845 1.53125 3.0625V11.375C1.53125 11.6651 1.64648 11.9433 1.8516 12.1484C2.05672 12.3535 2.33492 12.4688 2.625 12.4688H4.8125C5.10258 12.4688 5.38078 12.3535 5.5859 12.1484C5.79102 11.9433 5.90625 11.6651 5.90625 11.375V8.96875H8.09375V9.625C8.09375 9.91508 8.20898 10.1933 8.4141 10.3984C8.61922 10.6035 8.89742 10.7188 9.1875 10.7188H11.375C11.6651 10.7188 11.9433 10.6035 12.1484 10.3984C12.3535 10.1933 12.4688 9.91508 12.4688 9.625V3.0625C12.4688 2.88845 12.3996 2.72153 12.2765 2.59846C12.1535 2.47539 11.9865 2.40625 11.8125 2.40625ZM11.1562 5.90625H9.40625V3.71875H11.1562V5.90625ZM4.59375 3.71875V5.90625H2.84375V3.71875H4.59375ZM4.59375 11.1562H2.84375V7.21875H4.59375V11.1562ZM5.90625 7.65625V3.71875H8.09375V7.65625H5.90625ZM9.40625 9.40625V7.21875H11.1562V9.40625H9.40625Z" fill="#101318"/>
</svg>
