<svg width="14" height="14" viewBox="0 0 14 14" fill="none" xmlns="http://www.w3.org/2000/svg">
<path d="M12.9062 11.375C12.9062 11.549 12.8371 11.716 12.714 11.839C12.591 11.9621 12.424 12.0312 12.25 12.0312H1.75C1.57595 12.0312 1.40903 11.9621 1.28596 11.839C1.16289 11.716 1.09375 11.549 1.09375 11.375V2.625C1.09375 2.45095 1.16289 2.28403 1.28596 2.16096C1.40903 2.03789 1.57595 1.96875 1.75 1.96875C1.92405 1.96875 2.09097 2.03789 2.21404 2.16096C2.33711 2.28403 2.40625 2.45095 2.40625 2.625V10.7188H12.25C12.424 10.7188 12.591 10.7879 12.714 10.911C12.8371 11.034 12.9062 11.201 12.9062 11.375ZM6.34375 8.09375C6.34375 8.26681 6.39507 8.43598 6.49121 8.57987C6.58736 8.72377 6.72402 8.83592 6.8839 8.90214C7.04379 8.96837 7.21972 8.9857 7.38945 8.95194C7.55919 8.91818 7.7151 8.83484 7.83747 8.71247C7.95984 8.5901 8.04318 8.43419 8.07694 8.26445C8.1107 8.09472 8.09337 7.91879 8.02714 7.7589C7.96092 7.59902 7.84877 7.46236 7.70487 7.36621C7.56098 7.27007 7.39181 7.21875 7.21875 7.21875C6.98669 7.21875 6.76413 7.31094 6.60003 7.47503C6.43594 7.63913 6.34375 7.86169 6.34375 8.09375ZM5.90625 5.90625C6.07931 5.90625 6.24848 5.85493 6.39237 5.75879C6.53627 5.66264 6.64842 5.52598 6.71464 5.3661C6.78087 5.20621 6.7982 5.03028 6.76444 4.86055C6.73068 4.69081 6.64734 4.5349 6.52497 4.41253C6.4026 4.29016 6.24669 4.20682 6.07695 4.17306C5.90722 4.1393 5.73129 4.15663 5.5714 4.22286C5.41152 4.28908 5.27486 4.40123 5.17871 4.54513C5.08257 4.68902 5.03125 4.85819 5.03125 5.03125C5.03125 5.26331 5.12344 5.48587 5.28753 5.64997C5.45163 5.81406 5.67419 5.90625 5.90625 5.90625ZM4.15625 9.84375C4.32931 9.84375 4.49848 9.79243 4.64237 9.69629C4.78627 9.60014 4.89842 9.46348 4.96464 9.3036C5.03087 9.14371 5.0482 8.96778 5.01444 8.79805C4.98068 8.62831 4.89734 8.4724 4.77497 8.35003C4.6526 8.22766 4.49669 8.14432 4.32695 8.11056C4.15722 8.0768 3.98129 8.09413 3.8214 8.16036C3.66152 8.22658 3.52486 8.33873 3.42871 8.48263C3.33257 8.62652 3.28125 8.79569 3.28125 8.96875C3.28125 9.20081 3.37344 9.42337 3.53753 9.58747C3.70163 9.75156 3.92419 9.84375 4.15625 9.84375ZM9.40625 7.21875C9.57931 7.21875 9.74848 7.16743 9.89237 7.07129C10.0363 6.97514 10.1484 6.83848 10.2146 6.6786C10.2809 6.51871 10.2982 6.34278 10.2644 6.17305C10.2307 6.00331 10.1473 5.8474 10.025 5.72503C9.9026 5.60266 9.74669 5.51932 9.57695 5.48556C9.40722 5.4518 9.23129 5.46913 9.0714 5.53536C8.91152 5.60158 8.77486 5.71373 8.67871 5.85763C8.58257 6.00152 8.53125 6.17069 8.53125 6.34375C8.53125 6.57581 8.62344 6.79837 8.78753 6.96247C8.95163 7.12656 9.17419 7.21875 9.40625 7.21875ZM10.7188 5.03125C10.8918 5.03125 11.061 4.97993 11.2049 4.88379C11.3488 4.78764 11.4609 4.65098 11.5271 4.4911C11.5934 4.33121 11.6107 4.15528 11.5769 3.98555C11.5432 3.81581 11.4598 3.6599 11.3375 3.53753C11.2151 3.41516 11.0592 3.33182 10.8895 3.29806C10.7197 3.2643 10.5438 3.28163 10.3839 3.34786C10.224 3.41408 10.0874 3.52623 9.99121 3.67013C9.89507 3.81402 9.84375 3.98319 9.84375 4.15625C9.84375 4.38831 9.93594 4.61087 10.1 4.77497C10.2641 4.93906 10.4867 5.03125 10.7188 5.03125ZM9.40625 8.96875C9.40625 9.14181 9.45757 9.31098 9.55371 9.45487C9.64986 9.59877 9.78652 9.71092 9.9464 9.77714C10.1063 9.84337 10.2822 9.8607 10.452 9.82694C10.6217 9.79318 10.7776 9.70984 10.9 9.58747C11.0223 9.4651 11.1057 9.30919 11.1394 9.13945C11.1732 8.96972 11.1559 8.79379 11.0896 8.6339C11.0234 8.47402 10.9113 8.33736 10.7674 8.24121C10.6235 8.14507 10.4543 8.09375 10.2812 8.09375C10.0492 8.09375 9.82663 8.18594 9.66253 8.35003C9.49844 8.51413 9.40625 8.73669 9.40625 8.96875Z" fill="#101318"/>
</svg>
